
<svg width="1589" height="371" viewBox="0 0 1589 371" fill="none" xmlns="http://www.w3.org/2000/svg">
<path d="M1.01367 72.6024L167.369 153.457L150.729 0.00088501L1.01367 72.6024Z" fill="#6DA1EF"/>
<path d="M306.907 278.336L153.538 205.978L150.711 -6.98569e-06L307.339 69.4237L306.907 278.336Z" fill="#0B63E5"/>
<path d="M306.913 278.337L140.623 197.518L157.19 350.942L306.913 278.337Z" fill="#CDD2D8"/>
<path d="M1.0205 72.6115L154.39 144.969L157.19 350.934L0.662109 281.557L1.0205 72.6115Z" fill="white"/>
<path d="M407.73 299V80.6H454.53V256.88H553.434V299H407.73ZM655.119 302.12C638.271 302.12 623.191 298.48 609.879 291.2C596.775 283.712 586.375 273.52 578.679 260.624C571.191 247.728 567.447 232.96 567.447 216.32C567.447 199.68 571.191 185.016 578.679 172.328C586.375 159.432 596.775 149.24 609.879 141.752C623.191 134.264 638.271 130.52 655.119 130.52C671.759 130.52 686.631 134.264 699.735 141.752C713.047 149.24 723.447 159.432 730.935 172.328C738.423 185.016 742.167 199.68 742.167 216.32C742.167 232.96 738.423 247.728 730.935 260.624C723.447 273.52 713.047 283.712 699.735 291.2C686.631 298.48 671.759 302.12 655.119 302.12ZM655.119 263.432C663.231 263.432 670.511 261.456 676.959 257.504C683.407 253.344 688.399 247.728 691.935 240.656C695.679 233.376 697.551 225.264 697.551 216.32C697.551 207.168 695.679 199.056 691.935 191.984C688.399 184.704 683.407 179.088 676.959 175.136C670.511 170.976 663.231 168.896 655.119 168.896C646.799 168.896 639.415 170.976 632.967 175.136C626.519 179.296 621.423 184.912 617.679 191.984C613.935 199.056 612.167 207.168 612.375 216.32C612.167 225.264 613.935 233.376 617.679 240.656C621.423 247.728 626.519 253.344 632.967 257.504C639.415 261.456 646.799 263.432 655.119 263.432ZM768.948 299V133.952H811.692L812.628 165.464L806.076 166.712C808.364 161.304 811.38 156.416 815.124 152.048C818.868 147.68 823.236 143.936 828.228 140.816C833.428 137.696 838.836 135.304 844.452 133.64C850.068 131.768 855.684 130.832 861.3 130.832C869.828 130.832 877.524 132.184 884.388 134.888C891.252 137.592 897.076 141.856 901.86 147.68C906.644 153.296 910.388 160.784 913.092 170.144L906.228 169.52L908.412 164.528C911.116 159.536 914.548 155.064 918.708 151.112C922.868 146.952 927.548 143.416 932.748 140.504C937.948 137.384 943.356 134.992 948.972 133.328C954.588 131.664 960.1 130.832 965.508 130.832C978.404 130.832 989.116 133.432 997.644 138.632C1006.17 143.624 1012.52 151.216 1016.68 161.408C1021.04 171.6 1023.23 184.08 1023.23 198.848V299H978.924V201.968C978.924 194.48 977.884 188.344 975.804 183.56C973.724 178.776 970.708 175.24 966.756 172.952C962.804 170.456 957.708 169.208 951.468 169.208C946.684 169.208 942.212 170.04 938.052 171.704C934.1 173.16 930.564 175.344 927.444 178.256C924.532 180.96 922.244 184.184 920.58 187.928C918.916 191.672 918.084 195.832 918.084 200.408V299H873.78V201.656C873.78 194.792 872.636 188.968 870.348 184.184C868.268 179.192 865.252 175.448 861.3 172.952C857.348 170.456 852.46 169.208 846.636 169.208C841.852 169.208 837.38 170.04 833.22 171.704C829.268 173.16 825.836 175.344 822.924 178.256C820.012 180.96 817.62 184.184 815.748 187.928C814.084 191.672 813.252 195.728 813.252 200.096V299H768.948ZM1137.49 302.12C1119.6 302.12 1104 298.48 1090.69 291.2C1077.38 283.92 1066.98 273.936 1059.49 261.248C1052 248.56 1048.26 234 1048.26 217.568C1048.26 204.88 1050.34 193.232 1054.5 182.624C1058.66 172.016 1064.48 162.864 1071.97 155.168C1079.46 147.264 1088.3 141.232 1098.49 137.072C1108.89 132.704 1120.12 130.52 1132.18 130.52C1143.42 130.52 1153.82 132.6 1163.38 136.76C1172.95 140.712 1181.17 146.432 1188.03 153.92C1195.1 161.2 1200.51 169.832 1204.26 179.816C1208 189.8 1209.66 200.72 1209.25 212.576L1208.94 226.304H1076.34L1069.16 199.16H1172.43L1167.44 204.776V197.912C1167.02 192.296 1165.15 187.2 1161.82 182.624C1158.7 178.048 1154.65 174.512 1149.66 172.016C1144.66 169.52 1139.05 168.272 1132.81 168.272C1123.66 168.272 1115.86 170.04 1109.41 173.576C1103.17 177.112 1098.38 182.312 1095.06 189.176C1091.73 196.04 1090.06 204.36 1090.06 214.136C1090.06 224.12 1092.14 232.752 1096.3 240.032C1100.67 247.312 1106.7 253.032 1114.4 257.192C1122.3 261.144 1131.56 263.12 1142.17 263.12C1149.45 263.12 1156.1 261.976 1162.14 259.688C1168.17 257.4 1174.62 253.448 1181.48 247.832L1202.7 277.472C1196.66 282.88 1190.01 287.456 1182.73 291.2C1175.45 294.736 1167.96 297.44 1160.26 299.312C1152.57 301.184 1144.98 302.12 1137.49 302.12ZM1255.79 370.76L1291.98 285.896L1292.61 311.48L1212.11 133.952H1262.34L1302.59 229.112C1304.25 232.648 1305.81 236.808 1307.27 241.592C1308.93 246.168 1310.29 250.64 1311.33 255.008L1303.84 258.128C1305.09 254.592 1306.54 250.536 1308.21 245.96C1309.87 241.384 1311.53 236.496 1313.2 231.296L1347.83 133.952H1398.37L1329.11 299L1300.72 370.76H1255.79ZM1489.68 302.12C1472.83 302.12 1457.75 298.48 1444.44 291.2C1431.34 283.712 1420.94 273.52 1413.24 260.624C1405.75 247.728 1402.01 232.96 1402.01 216.32C1402.01 199.68 1405.75 185.016 1413.24 172.328C1420.94 159.432 1431.34 149.24 1444.44 141.752C1457.75 134.264 1472.83 130.52 1489.68 130.52C1506.32 130.52 1521.19 134.264 1534.3 141.752C1547.61 149.24 1558.01 159.432 1565.5 172.328C1572.99 185.016 1576.73 199.68 1576.73 216.32C1576.73 232.96 1572.99 247.728 1565.5 260.624C1558.01 273.52 1547.61 283.712 1534.3 291.2C1521.19 298.48 1506.32 302.12 1489.68 302.12ZM1489.68 263.432C1497.79 263.432 1505.07 261.456 1511.52 257.504C1517.97 253.344 1522.96 247.728 1526.5 240.656C1530.24 233.376 1532.11 225.264 1532.11 216.32C1532.11 207.168 1530.24 199.056 1526.5 191.984C1522.96 184.704 1517.97 179.088 1511.52 175.136C1505.07 170.976 1497.79 168.896 1489.68 168.896C1481.36 168.896 1473.98 170.976 1467.53 175.136C1461.08 179.296 1455.99 184.912 1452.24 191.984C1448.5 199.056 1446.73 207.168 1446.94 216.32C1446.73 225.264 1448.5 233.376 1452.24 240.656C1455.99 247.728 1461.08 253.344 1467.53 257.504C1473.98 261.456 1481.36 263.432 1489.68 263.432Z" fill="white"/>
</svg>
